<svg width="121" height="32" viewBox="0 0 121 32" fill="none" xmlns="http://www.w3.org/2000/svg">
<g clip-path="url(#clip0_159_2553)">
<path d="M55.8003 6.90479H55.5639C46.6983 25.3205 46.5422 26.4762 45.7002 28.3813H45.6461C44.8025 26.4793 44.6464 25.3236 35.7824 6.90479H35.546C35.546 6.90479 33.3211 31.5317 32.4558 31.5317V31.6568H35.101V31.5317C34.4536 31.5317 36.4112 14.1465 36.5054 12.1488H36.5672C37.5036 14.6456 38.8462 17.5163 40.5319 21.0437C41.717 23.5159 43.3408 27.3492 45.4004 31.6568H45.9551C48.0101 27.3476 49.6324 23.5097 50.819 21.0437C52.5047 17.5163 53.8473 14.6456 54.7837 12.1488H54.8455C54.9397 14.1465 56.8973 31.5317 56.2499 31.5317V31.6568H58.8951V31.5317C58.0252 31.5317 55.8049 6.90479 55.8049 6.90479" fill="black"/>
<path d="M11.3175 10.993H11.2866C10.8818 12.1797 6.35478 23.4479 6.35478 23.4479C3.67099 30.0917 3.18274 31.3648 3.51493 31.5317V31.6568H0.838867V31.5317C1.5017 31.5317 11.2063 6.90479 11.2063 6.90479H11.523C11.523 6.90479 20.7935 31.5317 21.4532 31.5317V31.6568H18.6968V31.5317C19.0151 31.3772 18.6211 30.0948 16.0007 23.4479C16.0007 23.4479 11.693 12.1797 11.3175 10.993Z" fill="black"/>
<path d="M80.3638 10.993H80.3313C79.9265 12.1797 75.3995 23.4479 75.3995 23.4479C72.7172 30.0917 72.229 31.3648 72.5596 31.5317V31.6568H69.8835V31.5317C70.5464 31.5317 80.251 6.90479 80.251 6.90479H80.5646C80.5646 6.90479 89.8351 31.5317 90.4948 31.5317V31.6568H87.743V31.5317C88.0613 31.3772 87.6673 30.0948 85.0453 23.4479C85.0453 23.4479 80.7377 12.1797 80.3638 10.993Z" fill="black"/>
<path d="M119.28 7.30496H118.062V7.43011C118.272 7.43011 118.468 8.89793 118.468 17.8887V27.5021H118.405C117.028 25.5384 108.915 15.1416 102.327 6.90479H102.091V21.0731C102.091 30.0639 101.7 31.5317 101.488 31.5317V31.6568H104.139V31.5317C103.939 31.5317 103.733 30.0639 103.733 21.0731V11.3948H103.795C105.168 13.3632 113.285 23.7553 119.873 31.9999H120.109V17.8887C120.109 8.89793 120.502 7.43011 120.712 7.43011V7.30496H119.28Z" fill="black"/>
<path d="M14.9547 0H7.49512V1.62851H14.9547V0Z" fill="black"/>
</g>
<defs>
<clipPath id="clip0_159_2553">
<rect width="119.873" height="32" fill="white" transform="translate(0.838867)"/>
</clipPath>
</defs>
</svg>
